<svg width="32" height="32" viewBox="0 0 32 32" fill="none" xmlns="http://www.w3.org/2000/svg">
<path d="M25.1981 16.8954C29.9339 11.245 31.1424 3.37363 31.0117 0.989368C31.0117 0.728079 30.8811 0.499451 30.7178 0.303484C30.5545 0.140178 30.3259 0.00953344 30.0319 0.00953344C27.6476 -0.121111 19.7763 1.05469 14.1586 5.79056L12.8521 5.30064C10.5659 4.45145 7.98564 5.13733 6.4179 6.99902L2.79251 11.2776C2.26993 11.8655 2.53122 12.8127 3.28243 13.074L7.16911 14.5111C6.31992 15.9482 5.73202 17.1566 5.34008 18.0058C5.01347 18.6917 5.17678 19.5082 5.73202 20.0635L10.9578 25.3219C11.4804 25.8445 12.2969 26.0078 13.0155 25.6812C13.8646 25.2893 15.0731 24.7014 16.5102 23.8522L17.9146 27.7389C18.1759 28.4901 19.1231 28.7187 19.711 28.2288L23.9569 24.6034C25.8186 23.0356 26.5045 20.4554 25.6553 18.1691L25.1981 16.8954ZM22.7485 12.8127C21.5074 14.0538 19.4824 14.0538 18.2086 12.8127C16.9675 11.5716 16.9675 9.54659 18.2086 8.27281C19.4497 7.03168 21.4747 7.03168 22.7485 8.27281C23.9896 9.54659 23.9896 11.5716 22.7485 12.8127Z" fill="#229AF8"/>
<path d="M8.70419 26.661L6.35259 28.98C5.89533 29.4372 5.89533 30.2211 6.35259 30.6783C6.80984 31.1356 7.59371 31.1356 8.05097 30.6783L10.4026 28.3267C10.8598 27.8695 10.8598 27.0856 10.4026 26.6284C9.91265 26.1711 9.16145 26.1711 8.70419 26.661Z" fill="#229AF8"/>
<path d="M7.3651 23.6562C6.90784 23.1989 6.12397 23.1989 5.66672 23.6562L1.94334 27.4122C1.48609 27.8695 1.48609 28.6534 1.94334 29.1106C2.4006 29.5679 3.18447 29.5679 3.64173 29.1106L7.3651 25.3219C7.85501 24.8647 7.85501 24.1135 7.3651 23.6562Z" fill="#229AF8"/>
<path d="M4.39293 22.3498C4.85018 21.8925 4.85018 21.1086 4.39293 20.6514C3.93567 20.1941 3.1518 20.1941 2.69455 20.6514L0.342942 23.003C-0.114314 23.4602 -0.114314 24.2441 0.342942 24.7014C0.800198 25.1586 1.58407 25.1586 2.04132 24.7014L4.39293 22.3498Z" fill="#229AF8"/>
</svg>
